<svg width="18" height="18" viewBox="0 0 18 18" fill="none" xmlns="http://www.w3.org/2000/svg">
<path d="M12.2815 2.43821C13.151 2.4408 13.9841 2.78736 14.599 3.4022C15.2138 4.01704 15.5604 4.85019 15.563 5.71969V12.282C15.5604 13.1515 15.2138 13.9846 14.599 14.5994C13.9841 15.2143 13.151 15.5608 12.2815 15.5634H5.71922C4.84972 15.5608 4.01657 15.2143 3.40173 14.5994C2.7869 13.9846 2.44034 13.1515 2.43774 12.282V5.71969C2.44034 4.85019 2.7869 4.01704 3.40173 3.4022C4.01657 2.78736 4.84972 2.4408 5.71922 2.43821H12.2815ZM12.2815 1.12582H5.71922C3.19254 1.12582 1.12536 3.19301 1.12536 5.71969V12.282C1.12536 14.8086 3.19254 16.8758 5.71922 16.8758H12.2815C14.8082 16.8758 16.8754 14.8086 16.8754 12.282V5.71969C16.8754 3.19301 14.8082 1.12582 12.2815 1.12582Z" fill="#709775"/>
<path d="M13.2684 5.7253C13.0731 5.7253 12.8823 5.66741 12.7199 5.55893C12.5576 5.45046 12.4311 5.29628 12.3563 5.11589C12.2816 4.93551 12.2621 4.73701 12.3002 4.54552C12.3383 4.35402 12.4323 4.17812 12.5703 4.04006C12.7084 3.902 12.8843 3.80798 13.0758 3.76988C13.2673 3.73179 13.4658 3.75134 13.6462 3.82606C13.8266 3.90078 13.9807 4.02731 14.0892 4.18965C14.1977 4.352 14.2556 4.54286 14.2556 4.73811C14.2559 4.86783 14.2305 4.99632 14.181 5.11622C14.1315 5.23612 14.0588 5.34506 13.9671 5.43678C13.8753 5.52851 13.7664 5.60121 13.6465 5.65073C13.5266 5.70024 13.3981 5.72558 13.2684 5.7253Z" fill="#709775"/>
<path d="M9.00019 6.37452C9.51939 6.37452 10.0269 6.52848 10.4586 6.81693C10.8903 7.10538 11.2268 7.51537 11.4255 7.99504C11.6242 8.47472 11.6762 9.00254 11.5749 9.51177C11.4736 10.021 11.2236 10.4887 10.8564 10.8559C10.4893 11.223 10.0216 11.473 9.51233 11.5743C9.00311 11.6756 8.47528 11.6236 7.99561 11.4249C7.51593 11.2262 7.10594 10.8898 6.81749 10.4581C6.52904 10.0264 6.37508 9.51883 6.37508 8.99963C6.37582 8.30364 6.65264 7.63636 7.14478 7.14422C7.63692 6.65207 8.3042 6.37526 9.00019 6.37452ZM9.00019 5.06213C8.22143 5.06213 7.46016 5.29306 6.81264 5.72572C6.16512 6.15838 5.66044 6.77333 5.36242 7.49282C5.0644 8.2123 4.98642 9.004 5.13835 9.7678C5.29028 10.5316 5.66529 11.2332 6.21596 11.7839C6.76663 12.3345 7.46823 12.7095 8.23203 12.8615C8.99583 13.0134 9.78753 12.9354 10.507 12.6374C11.2265 12.3394 11.8414 11.8347 12.2741 11.1872C12.7068 10.5397 12.9377 9.7784 12.9377 8.99963C12.9377 7.95534 12.5229 6.95382 11.7844 6.2154C11.046 5.47698 10.0445 5.06213 9.00019 5.06213Z" fill="#709775"/>
</svg>
